# xmcd
#
# Track frame offsets:
#	150
#	17187
#	42824
#	72101
#	92231
#	104889
#	123216
#	146098
#	166167
#	185664
#	206891
#	222117
#	244739
#
# Disc length: 3529 seconds
#
# Revision: 0
# Processed by: cddbd v1.5.2PL0 Copyright (c) Steve Scherf et al.
# Submitted via: audiograbber 1.83.01
#
DISCID=c20dc70d
DTITLE=Ernie Van Veen - Mumble and Shout Volume One
DYEAR=2008
DGENRE=Blues
TTITLE0=Flag Of Democracy
TTITLE1=Great Southern Land
TTITLE2=Breathe
TTITLE3=Blue
TTITLE4=Black Top White Line
TTITLE5=I Dont Believe You
TTITLE6=Hard Times
TTITLE7=Nothing But A Man
TTITLE8=Wait No More
TTITLE9=Restless Legends
TTITLE10=Chances
TTITLE11=Think Of You
TTITLE12=Thrill is Gone
EXTD=
EXTT0=
EXTT1=
EXTT2=
EXTT3=
EXTT4=
EXTT5=
EXTT6=
EXTT7=
EXTT8=
EXTT9=
EXTT10=
EXTT11=
EXTT12=
PLAYORDER=
